<svg fill="#000000" height="35px" width="32px" version="1.1" id="Layer_1" xmlns="http://www.w3.org/2000/svg" xmlns:xlink="http://www.w3.org/1999/xlink" viewBox="0 0 24.00 24.00" xml:space="preserve" stroke="#000000" stroke-width="0.00024000000000000003"><g id="SVGRepo_bgCarrier" stroke-width="0"></g><g id="SVGRepo_tracerCarrier" stroke-linecap="round" stroke-linejoin="round" stroke="#00bf55" stroke-width="0.72"> <g> <path d="M8,12h1v1h6v-1h1v-1h1V5h-1V4h-1V3H9v1H8v1H7v6h1V12z M9,7h1V6h1V5h2v1h1v1h1v2h-1v1h-1v1h-2v-1h-1V9H9V7z"></path> <polygon points="19,16 19,15 18,15 18,14 6,14 6,15 5,15 5,16 4,16 4,21 6,21 6,18 7,18 7,17 8,17 8,16 16,16 16,17 17,17 17,18 18,18 18,21 20,21 20,16 "></polygon> </g> </g><g id="SVGRepo_iconCarrier"> <g> <path d="M8,12h1v1h6v-1h1v-1h1V5h-1V4h-1V3H9v1H8v1H7v6h1V12z M9,7h1V6h1V5h2v1h1v1h1v2h-1v1h-1v1h-2v-1h-1V9H9V7z"></path> <polygon points="19,16 19,15 18,15 18,14 6,14 6,15 5,15 5,16 4,16 4,21 6,21 6,18 7,18 7,17 8,17 8,16 16,16 16,17 17,17 17,18 18,18 18,21 20,21 20,16 "></polygon> </g> </g></svg>