<svg class="star-filled" viewBox="0 0 12 12" version="1" xmlns="http://www.w3.org/2000/svg">
        <path fill-rule="evenodd" clip-rule="evenodd" fill="#ffbb29" d="M6.00002 9.23652L2.91908 11.4787C2.78946 11.573 2.62246 11.5995 2.47003 11.5499C2.20746 11.4643 2.06393 11.1822 2.14945 10.9196L3.32835 7.29985L0.275172 5.12724C0.143349 5.03343 0.0650635 4.88164 0.0650635 4.71985C0.0650635 4.44371 0.288921 4.21985 0.565063 4.21985H4.30835L5.52412 0.446794C5.57347 0.293635 5.69351 0.173588 5.84667 0.124237C6.10951 0.0395456 6.39123 0.183959 6.47592 0.446794L7.69169 4.21985H11.435C11.5968 4.21985 11.7486 4.29814 11.8424 4.42996C12.0025 4.65495 11.9499 4.96713 11.7249 5.12724L8.67169 7.29985L9.8506 10.9196C9.90024 11.072 9.87378 11.239 9.77945 11.3687C9.61696 11.5919 9.30423 11.6412 9.08096 11.4787L6.00002 9.23652Z"></path>
      </svg>